<?xml version="1.0" encoding="utf-8"?>
<!-- Generator: Adobe Illustrator 24.0.1, SVG Export Plug-In . SVG Version: 6.00 Build 0)  -->
<svg version="1.1" xmlns="http://www.w3.org/2000/svg" xmlns:xlink="http://www.w3.org/1999/xlink" x="0px" y="0px"
	 viewBox="0 0 1686 846" style="enable-background:new 0 0 1686 846;" xml:space="preserve">
<style type="text/css">
	.st0{fill:#FFD810;}
	.st1{fill:#F70D98;}
	.st2{fill:#FCFCFC;}
	.st3{fill:none;stroke:#FFD810;stroke-width:5;stroke-miterlimit:10;}
	.st4{fill:#FFDE22;}
</style>
<g id="img">
</g>
<g id="Layer_1">
</g>
<g id="artboard2">
	<path class="st4" d="M906.26,257.81c-1.5-1.61-2.66-2.85-3.96-4.24c1.07-1.38,2.18-2.81,3.29-4.24c-0.01-0.4-0.03-0.8-0.04-1.19
		c-2.43,0.78-4.85,1.56-7.61,2.45c1.82-5.7,5.7-6.2,8.27-9.85c-2.74-2.03-7.21,3.22-9.22-1.51c1.21-0.97,2.31-1.85,3.73-2.98
		c-2.5-0.98-0.51-3.83,0.28-4.78c1.28-1.54,3.23-2.84,4.67-2.93c1.77-0.11,3.3,1.11,4.93,1.79c2.92,1.22,5.86,2.39,9.56,0.74
		c1.94-5.34,0.28-11.78,6.21-16.11c-1.29-0.62-2.09-1-3.64-1.74c2.95-1.36,5.1-2.35,7.55-3.47c-1.41-4.77-5.29,0.19-7.96-1.77
		c3.32-2.4,6.07-4.4,9.42-6.82c-2.17-0.05-3.7-0.08-5.23-0.11c0-0.29,0-0.57-0.01-0.86c1.53-1.05,3.07-2.11,4.6-3.16
		c0.08-0.38,0.17-0.75,0.25-1.13c-2.36-0.5-4.71-1-7.07-1.5c0.12-0.43,0.23-0.86,0.35-1.28c1.23-0.11,2.46-0.22,3.74-0.34
		c0.17-4.14-5.15-0.57-3.76-6.19c1.27-0.16,2.51-0.32,3.74-0.48c0.1-0.37,0.2-0.74,0.3-1.11c-1.08-0.41-2.16-0.81-3.33-1.25
		c1.24-4.42,3.31-0.81,5.01-3.09c-0.06-5.28-6.36-1.85-6.29-7.69c1.08-0.05,2.02-0.1,2.96-0.14c0.12-0.28,0.24-0.56,0.36-0.84
		c-1.09-0.63-2.18-1.26-3.27-1.89c0.06-0.24,0.11-0.48,0.17-0.71c1.9,0.4,3.8,0.81,5.71,1.21c0.17-0.34,0.34-0.68,0.51-1.02
		c-0.87-1.23-1.75-2.46-2.62-3.69c4.31-0.37,8.15,0.17,10.54,4.3c3.51,6.07,7.08,12.07,10.49,18.26c2.38,4.32,2.83,9.8,1.57,16.27
		c-1.18,6.02,2.02,11.39,6.15,12.15c4.4,0.81,8.56,2.47,12.79,3.82c0.23,0.07,0.25,0.76,0.27,0.81
		c-7.69,5.87-15.27,11.85-22.94,17.45c-7.69,5.62-15.43,8.98-23.04,8.29c-4.16-0.38-7.92,1.2-10.66,7.55
		c-1.04,2.4-2.12,2.7-3.59,2.6C908.31,257.29,907.07,257.68,906.26,257.81z M1075.62,443.69c1.99-0.13,3.98-0.25,6.92-0.43
		c-3.93,2.59-6.69,4.74-5.28,7.96c1.5,0.27,3.35,0.05,3.78,0.82c0.55,1-0.03,2.8-0.11,4.02c2.27-1.56,4.47-3.06,7.55-5.16
		c-1.14,2.45-1.82,3.93-2.83,6.09c1.51-0.99,2.31-1.51,3.12-2.03c0.19,0.14,0.38,0.28,0.57,0.42c-2.41,3.96-4.82,7.92-7.23,11.89
		c3-1.48,3.44-5.64,7.27-6.14c-1.06,3.81-4.78,6.89-4.91,11.59c1.56-2.07,2.47-3.29,3.38-4.51c0.26,0.05,0.53,0.1,0.79,0.15
		c-0.69,2.36-1.39,4.73-2.09,7.12c2.53,0.35,3.37-0.66,3.99-2.74c1.58-5.37,3.3-10.73,5.15-16.08c0.92-2.67,2.01-5.36,3.4-7.93
		c4.31-7.97,8.3-15.84,5.45-23.67c-0.7-1.92,0.5-3.37,2.85-3.95c2.1-0.51,4.2-1.17,6.3-1.67c3.93-0.93,7.85-1.79,12.32-2.81
		c-2.4-1.76-4.66-2.94-6.27-4.73c-2.21-2.45-4.88-3.57-8.57-3.78c-3.5-0.2-7.02-1.01-8.63-4.39c-0.36-0.76-1.32-1.33-2.21-1.54
		c-2.4-0.54-5-0.65-7.35-1.27c-5.55-1.46-11-3.11-16.73-4.75c-6.75,5.24-7.35,7.8-2.35,11.4c0.13,0.09,0,0.5-0.02,1.21
		c-8.45,2.79-13.19-3.69-20.64-3.2c-2.91,4.99-8.98,10.39-2.47,14.65c-1.65,3.72-1.62,4.96,0.16,4.57c4.23-0.93,6.29,1.75,9.29,2.62
		c-0.63,2.91-4.72,4.65-3.11,8.48c2.59-2.34,5.07-4.18,7.01-6.42c5.2-5.98,6.29-6.34,10.74-2.59c0.56,0.48,1.24,0.83,2.19,1.47
		c-1.33,0.98-2.27,1.68-3.63,2.69c1.6,0.66,2.89,1.19,4.36,1.8c-1.1,0.79-1.9,1.37-3.56,2.57c2.69,0.22,4.53,0.37,7.23,0.59
		c-2.66,1.32-4.37,2.17-6.08,3.02c0,0.25,0.01,0.5,0.01,0.75c1.99-0.06,3.98-0.11,5.97-0.17c0,0.19,0.01,0.38,0.01,0.57
		c-1.91,0.98-3.82,1.96-5.73,2.93C1075.62,443.29,1075.62,443.49,1075.62,443.69z M263.74,580.81c4.13-2.79,7.36-3.54,11.29-1.18
		c6,3.61,12.81,5.95,19.72,9.03c-4.97,2.65-3.73,4.74-1.62,7.55c5.24,6.97,13.24,8.56,21.38,10.03c4.58,0.83,9.18,1.58,13.29,2.28
		c1.31-7.43,2.56-15.45,4.29-23.46c0.31-1.44,2.53-3.51,4.05-4.12c10.11-4.02,20.28-7.73,29.6-11.22
		c-6.85-10.13-19.63-10.49-31.66-12.4c3.85-13.25,7.36-25.31,10.82-37.39c0.1-0.37-0.45-0.81-0.93-1.6
		c-1.36,2.52-2.46,4.56-4.45,8.25c-0.87-4.54-1.46-7.58-2.05-10.62c-0.31,0.02-0.62,0.04-0.93,0.06c-0.75,2.61-1.51,5.23-2.22,7.69
		c-1.62-2.42-3.24-4.84-4.86-7.26c-0.41,0.33-0.81,0.67-1.22,1c0.43,3.98,0.86,7.96,1.28,11.93c-0.37,0.16-0.74,0.32-1.1,0.48
		c-2.03-3.63-4.06-7.27-6.09-10.9c-0.76,0.5-1.51,1.01-2.27,1.51c1.6,4.42,3.21,8.84,4.81,13.26c-1.82-0.23-3.12-1.02-3.81-2.28
		c-2.29-4.15-5.06-6.24-10.28-2.02c-1.01,0.81-2.72,1.21-3.81,0.98c-4.06-0.86-6.33,2.31-8.68,5.46c-0.86,1.15-1.49,2.71-2.54,3.46
		c-6.54,4.71-10.01,10.46-8.09,17.86c-12.16,4.42-23.69,8.35-35.12,6.87c-2.77-0.36-5.96-0.72-7.89,3.6
		c3.08,3.12,3.08,3.12-0.25,6.81c4.68,0.75,6.53,4.67,5.19,11.32C254.69,587.35,259.26,583.84,263.74,580.81z M1322.27,138.3
		c-1.03,0.67-2.52,0.3-3.8,0.22c-4.69-0.31-9.2,0.41-13.57,2.73c-5.42,2.87-10.87,5.76-16.46,7.98c-3.11,1.24-6.55,1.2-9.85,1.62
		c-3.52,0.45-4.4,2.34-4.77,6.79c-0.33,4.02,1.16,6.72,2.59,9.67c1.81,3.72,2.8,3.91,5.51,1.17c2.11-2.13,4.27-4.21,6.21-6.58
		c1.84-2.25,3.95-2.51,6.11-1.63c0.8,0.32,1.27,2.04,1.89,3.13c-0.2,0.21-0.39,0.41-0.59,0.62c0.7,0.32,1.4,0.64,2.08,0.95
		c-0.28,1.31-0.52,2.45-0.81,3.78c1.43,0.2,2.5,0.34,3.84,0.53c-1.09,1.01-1.87,1.74-2.66,2.47c0.12,0.32,0.23,0.64,0.35,0.96
		c1.33-0.09,2.66-0.19,4.29-0.3c-1.65,2.28-3.07,4.24-4.11,5.68c1.45,2.57,2.61,4.61,3.76,6.66c3.27,3.69,4.13-4.35,7.67-2.96
		c-0.96,1.89-1.8,3.52-2.63,5.16c0.2,0.2,0.39,0.39,0.59,0.59c0.96-0.65,1.93-1.31,2.89-1.96c0.14,0.21,0.29,0.41,0.43,0.62
		c-1.34,3.24-2.67,6.48-4.01,9.72c0.46,0.47,0.92,0.93,1.38,1.4c0.94-1.94,1.88-3.87,2.82-5.81c0.19,0.26,0.39,0.52,0.58,0.77
		c-1.53,4.4-3.05,8.79-4.58,13.19c0.29,0.17,0.59,0.34,0.88,0.51c1.13-2.23,2.25-4.46,3.38-6.69c0.33,0.23,0.66,0.47,0.99,0.7
		c-0.84,2.57-1.68,5.14-2.52,7.72c0.11,0.11,0.22,0.21,0.33,0.32c1.23-1.7,2.45-3.4,3.68-5.1c0.2,0.19,0.4,0.37,0.59,0.56
		c-0.73,2.7-1.46,5.4-2.19,8.11c0.23,0.14,0.46,0.29,0.68,0.43c0.51-1.11,1.16-2.15,1.52-3.34c4-13.06,5.9-26.87,7.78-40.63
		c0.58-4.24-0.07-8.79-0.16-13.08c5.12-5.56,10.66-11.58,16.2-17.6C1332.77,135.92,1327.41,134.98,1322.27,138.3z M622.52,541.06
		c2.23,0.89,3.17,0.06,4.12-1.42c2.64-4.12,6.74-5.3,12.12-4.52c2.8,0.4,5.83,0.17,8.12-0.87c9.81-4.46,17.89-11.05,23.18-20.78
		c3.25-5.98,6.36-12.05,9.89-18.78c-5.52,1.22-10.64,2.35-15.76,3.46c-1.87,0.41-3.29,1.42-5.97-0.47c-1.65-1.16-4.1-0.76-5.7-3.33
		c-0.31-0.5-1.68-0.63-2.5-0.67c-5.7-0.23-10.79,0.98-15.22,3.74c-1.33,0.83-2.84,1.38-4.24,2.11c-6.87,3.57-13.7,7.22-20.63,10.69
		c-2.39,1.2-1.72,2.77,0.12,5.28c2.86-1.15,5.35-3.08,8.28-3.07c2.79,0.02,6.26-1.35,9.2,2.26c-0.49,3.21-5.46,2.32-4.1,6.95
		c3.34-0.22,5.59-5.37,10.08,1.08c-2.48,3.38-4.64,7.42-7.81,10.3c-2.63,2.39-6.59,3.28-6.64,8.14
		C620.12,541.12,621.39,540.61,622.52,541.06z M880.58,551.06c-2-0.54-4.15-0.66-6.25-0.92c-3.5-0.43-3.86-1.61-3.33-5.88
		c0.38-3.1,0.22-6.32-0.31-9.2c-1.05-5.76-2.49-11.34-3.84-16.96c-0.19-0.81-0.77-1.41-0.93-1.69c-1.67,2.58-3.73,4.72-4.44,7.11
		c-1.23,4.18-3.82,2.85-5.78,3.95c-2.08,1.17-3.76,4.48-3.17,6.88c0.49,2.01,0.57,3.95-0.2,6.2c-1.29,3.79-2.99,7.57-1.8,11.44
		c0.18,0.59-0.9,2.47-1.68,3.07c-3.6,2.72-7.29,4.99-11.4,5.48c-2.61,0.31-5.26,1.18-8.07,1.84c1.47,6.93,1.66,7.24,6.77,4.68
		c4.78-2.4,8.84-2.05,12.85-0.04c2.95,1.47,3.06,1.26,3.42,6.99c0.76,0.16,1.6,0.34,2.44,0.52c-0.34,0.91-0.6,1.61-0.88,2.35
		c1.1-0.06,2.1-0.11,3.08-0.16c-0.48,1.1-0.8,1.86-1.13,2.62c1.96,0.24,0.59,1.29,0.42,2.59c-0.3,2.37-2.19,6.32,1.49,7.11
		c0.51-4.08,0.51-4.08,3.22-4.84c-0.39,1.76-0.77,3.5-1.25,5.67c1.6,0.1,2.98,0.18,4.32,0.26c0.26,1.26,0.53,2.51,0.81,3.85
		c1.26-1.64,2.29-2.97,4.03-5.22c-0.19,2.37-0.28,3.51-0.42,5.25c0.77-0.78,1.21-1.23,1.64-1.67c0.73,1.62,1.47,3.24,2.2,4.85
		c0.44-0.23,0.88-0.46,1.32-0.69c-0.58-10.21-1.01-20.46-1.84-30.58c-0.23-2.78,0.52-4.26,2.54-5.57c3.22-2.08,6.44-4.13,10.73-6.88
		C883.21,552.4,881.99,551.43,880.58,551.06z M6.08,755.98c7.79,3.69,16.52,1.28,25.59-2.36c-0.11,0.7-0.22,1.41-0.33,2.11
		c-4.14,1.87-8.31,3.52-12.41,5.71c-1.93,1.03-3.72,3.12-5.57,4.73c0.9,1.87,1.38,4.29,2.8,5.46c1.7,1.41,4.27,1.61,6.32,2.57
		c5.02,2.35,10.04,4.71,14.91,7.32c4.81,2.58,9.77,4.55,17.72,0.84c2.05-4.12,4.81-9.1,7-14.21c2.27-5.29,5.85-8.75,9.93-9.95
		c5.77-1.69,13.27-7.56,15.03,0.81c4.74-0.55,8.71-1.02,12.69-1.48c-0.06,0.56-0.12,1.12-0.18,1.69c-1.81,1.68-3.61,3.35-5.42,5.03
		c-0.05,0.49-0.1,0.99-0.16,1.48c4.24-0.76,8.48-1.53,14.35-2.58c-3.7,3.74-6.35,6.42-9.35,9.45c1.06,3.69,4.63,0.47,6.89-0.07
		c2.6-0.62,5.38-2.65,8.08-4.06c0.23,0.52,0.46,1.03,0.7,1.55c-3.26,3.42-6.53,6.84-9.79,10.26c0.2,0.54,0.39,1.09,0.59,1.63
		c4.22-1.98,8.44-3.96,14.22-6.67c-3.27,4.69-5.48,7.86-7.7,11.03c0.11,0.42,0.22,0.84,0.32,1.27c3.41-1.58,6.83-3.16,10.24-4.74
		c0.32,0.38,0.64,0.77,0.96,1.15c-1.85,3.34-3.7,6.68-5.99,10.81c0.44,0.59,1.39,1.86,3.01,4.01c3.01-6.05,5.52-11.08,8.67-17.41
		c1.75,5.87,0.67,10.79-1.78,16.01c-1.53,3.25-3.31,6.55,0.23,9.19c2.51-5.91,4.85-11.42,7.18-16.92c0.62-0.08,1.23-0.16,1.85-0.24
		c-0.54,7.49-1.08,14.98-1.71,23.82c6.78-6.73,2.44-12.32,6.62-17.94c5.99,4.5-1.78,18.32,6.65,22.06c0.03-5.16,0.05-9.2,0.07-13.25
		c0.64-0.37,1.28-0.73,1.93-1.1c1.45,6.33,2.89,12.66,4.36,19.09c4.12-0.93,6.81-0.71,9.14,2.11c2.27,2.74,6.92,2.78,11.01,4.17
		c0.37-2.12,0.84-3.29,0.58-3.54c-11.75-11.06-17.16-27.86-23.17-44.14c-5.86-15.88-11.85-31.66-18.05-47.27
		c-1.45-3.66-3.98-6.47-6.31-10.13c6.03-8.59,11.65-16.6,18.24-25.98c-8.77,0.34-15.2-4.92-24.83,1.05
		c-6.77,4.2-13.1,5.62-19.45,5.5c-2.13-0.04-4.65,0.4-6.88,1.56c-17.37,9-34.9,16.1-52.03,27.93
		c-11.14,7.69-22.88,13.21-34.34,19.76C7.87,753.45,7.37,754.4,6.08,755.98z M1636.77,213.47c-4.01-0.78-7.93-0.26-11.81,2.33
		c-4.42,2.96-8.92,5.41-13.77,6.78c-7.5,2.12-13.79,7.14-20.16,11.9c-4.24,3.17-7.85,6.94-11.28,10.99
		c-4.19,4.96-9.96,7.9-15.16,11.56c-1.68,1.19-3.37,2.37-5,3.63c-3.03,2.37-5.24,4.88-6.9,8.57c-1.32,2.94-1.68,5.79-2.86,8.64
		c-0.61,1.46-0.56,3.03-0.91,5.14c2.14-0.67,3.82-1.52,5.37-1.63c8.24-0.59,13.72-6.09,18.78-12.54c0.88-1.12,2.06-2.06,2.91-3.2
		c1.79-2.39,3.85-2.94,6.31-2.91c6.74,0.08,6.81,0.03,10.57-6.32c1.57-2.66,3.34-4.21,6.44-4.72c3.1-0.51,6.27-1.83,9.41-2.81
		c2.42-0.76,4.42-0.92,5.9,0.98c0.79,1.01,2.53,1.23,4.05,1.9c0.43,3.48-0.86,3.36,5.22,2.36c-0.17,0.89-0.33,1.75-0.63,3.34
		c2.22-0.65,4.25-1.25,6.61-1.95c-0.01,1.03-0.03,2.41-0.05,4.55c2.01-1.18,3.68-2.16,5.45-3.2c2.05,1.45-2.23,6.05,2.12,6.57
		c0.63-1.98,1.2-3.77,1.98-6.26c2.19,2.02,1.12,4.26,0.78,6.19c-0.41,2.36-0.67,4.48,2.68,4.72c0.24-1.52,0.45-2.8,0.76-4.7
		c2.6,2.55,0.71,6.79,2.98,9.2c1.99-0.9,4.08-1.45,3.99,1.53c-0.01,0.24,0.24,0.43,0.37,0.64c0.2,0.31,0.33,0.72,0.63,0.92
		c2.49,1.63,5.01,3.22,8.35,5.34c-0.73-2.02-1.09-3.26-1.61-4.4c-3.26-7.28-6.55-14.54-9.85-21.79c-2.43-5.35-4.51-10.94-7.47-15.92
		c-1.73-2.92-4.57-5.2-7.44-7.11c-3.14-2.08-2.89-5.01-1.32-8.59C1633.62,220.01,1635.18,216.86,1636.77,213.47z M1422.36,66.47
		c1.28-0.53,2.09-0.86,2.26-0.93c1.68,2.36,3.29,4.62,5.05,7.08c-5.34,6.65-13.73,10.41-21.07,15.2c0.22,0.36,0.43,0.71,0.65,1.07
		c1.19-0.31,2.48-0.45,3.55-0.97c2.85-1.38,5.76-2.75,8.36-4.45c2.69-1.76,5.31-1.76,8.27-1.29c4.14,0.66,8.33,1.6,12.53,1.47
		c8.89-0.26,16.49-4.11,23.56-8.69c2.84-1.84,5.25-4.18,7.88-6.28c2.37-1.89,4.76-3.75,7.42-5.84c-4.04-1.32-8.28-2.7-13.14-4.28
		c0.72-1.76,1.21-3.54,2.13-5.14c7.24-12.61,4.35-23.87-3.99-34.42c-0.24-0.3-0.65-0.51-1-0.74c-0.11-0.07-0.29-0.06-0.04-0.01
		c-1.34,0.89-2.54,1.56-3.55,2.4c-0.62,0.52-1.08,1.26-1.4,1.96c-2.33,5.24-4.62,10.49-6.89,15.75c-1.69,3.9-3.32,7.82-5.02,11.72
		c-0.53,1.21-1.17,2.4-1.92,3.91c-2.69-1.6-4.86-3.12-7.27-4.28c-9.96-4.77-20.08-9.31-29.97-14.19c-3.72-1.83-6.97-4.34-10.45-6.52
		c-0.69-0.43-1.49-0.74-2.79-1.37c0.23,1.1,0.35,1.69,0.48,2.33c-0.72,0.09-1.44,0.19-2.72,0.35c1.88,3.64,3.33,7.31,5.57,10.56
		c2.55,3.71,5.99,6.93,8.66,10.58c1.51,2.07,3.27,3.56,5.85,4.55c1.07,0.41,1.8,1.42,3.14,2.54c0.76-0.02,2.22-0.05,3.99-0.08
		c-0.66,1.4-1.21,2.56-1.93,4.09c1.56-0.17,2.69-0.29,4.01-0.43C1422.52,63.46,1422.45,64.8,1422.36,66.47z M499.56,271.04
		c-0.26,1.46-0.42,2.35-0.67,3.81c-1.27-1.21-2.36-2.24-3.38-3.2c-4.14,3.22,4.84,30.2,12.4,38.51c-2.67,4.55,0.2,6.98,1.95,9.85
		c0.87,1.42,1.65,2.91,3.03,5.35c0.3,0.01,1.9,0.04,3.69,0.07c-1.18,1.8-2.16,3.27-3.57,5.41c1.87,0.39,3.21,0.67,4.68,0.97
		c0.61,1.67-4.18,6.88,2.12,5.32c-1.07,6.46,3.97,8.99,6.08,14.12c-8.4,10.19-19.43,16.43-29.93,24.7c3.58,1.68,6.84,2.15,9.75-0.89
		c6.95-7.25,14.45-6.25,21.58-4.6c12.77,2.96,24.5-2.39,35.89-9.71c5.44-3.49,10.73-8,15.09-13.1c3.56-4.16,5.63-9.89,9.03-16.15
		c-5.47-0.62-10.54-1.19-16.21-1.83c0.01-6.14-0.2-13.1,0.07-20.1c0.8-20.42-3.96-38.49-12.06-55.34c-1.36-2.82-2.94-3.69-5.16-3.27
		c-0.82-3.56-1.54-6.65-2.25-9.74c-0.61-0.06-1.21-0.13-1.82-0.19c-1.76,2.75-4.28,5.32-5.13,8.28c-2.57,8.87-4.5,17.9-6.43,25.84
		c3.19,3.73,5.88,6.87,8.57,10.01c-0.27,0.34-0.55,0.69-0.82,1.03c-2.39-1.54-4.78-3.07-7.46-4.8c-0.82,1.35-1.54,2.52-2.32,3.81
		c2.5,2.78,7.83,1.38,8.23,8.5c-3.27-1.61-5.57-2.75-8.09-3.99c-2.73,3.39-0.88,4.23,1.6,5.28c2.08,0.88,3.84,2.49,5.74,3.78
		c-0.2,0.55-0.41,1.09-0.61,1.64c-2.9-0.66-5.8-1.32-9.24-2.1c0.03,2.17,0.05,3.94,0.08,5.96c-8.15-1.86-12.86-8.83-18.34-14.42
		C510.12,284.21,505.26,277.77,499.56,271.04z M686.63,433.33c0.91,0.95,1.82,1.9,2.77,2.89c-1.46,0.59-2.76,1.12-4.29,1.74
		c4.02,5.47,9.73,8.48,16.27,9.9c6.23,1.35,12.69,1.9,19.06,2.75c1.9,0.25,3.82,0.33,6.15,0.53c-0.79,7.55-6.51,12.38-10.78,18.6
		c3.1-0.73,4.47-2.56,5.66-4.17c2.48-3.36,6.02-4.65,10.16-5.03c11.85-1.1,21.57-5.73,29.12-14.11c3.87-4.3,6.09-9.22,7.27-14.57
		c0.46-2.09,0.85-4.2,1.26-6.21c-3.04,0.69-6.11,1.39-9.23,2.11c-1.97-1.79-0.48-3.66-0.24-5.39c0.98-6.96,2.44-13.88,3.09-20.87
		c0.45-4.79,0.02-9.68-1.69-14.52c-4.81,2.17-5.18-3.03-8.03-3.85c-1.83,1.09,0.73,4.51-2.78,4.06c-2.3,5.41-4.75,10.53-6.65,15.8
		c-2.36,6.54-4.4,13.17-6.3,19.83c-1.12,3.92-1.74,7.95-2.48,11.94c-0.34,1.81-1.16,3.16-3.34,3.21
		c-9.41,0.19-18.74,2.02-28.21,1.01c-6.07-0.65-11.6-2.22-16.1-6.14C687.09,432.99,686.86,433.16,686.63,433.33z M1292.2,505.46
		c17.34,4.8,30.44-4.25,44.56-10.79c-1.12-2.08-2.09-3.86-3.35-6.2c2.49-3.61,5.03-7.45,7.7-11.15c4.34-6.03,6.85-13.14,7.92-21.15
		c0.9-6.73,3.09-12.22,8.7-15.06c2.27-1.15,3.84-3.86,6.06-5.17c5.28-3.1,10.75-5.8,16.17-8.62c6.49-3.39,11.9-8.2,14.25-16.39
		c1.11-3.85,1.28-8.17,1.87-12.27c-0.44-0.32-0.89-0.64-1.33-0.96c-1.47,1.11-3.07,2.04-4.38,3.36c-2.51,2.54-5.68,4.75-7.1,8.1
		c-2.3,5.41-6.67,8.29-9.66,12.83c-3.77,5.72-9.41,9.68-14.42,14.15c-1.97,1.76-4.42,2.82-7,4.42c-0.52-1.2-0.95-2.23-1.58-3.7
		c-7.88,2.32-15.76,4.76-21.24,12.47c-0.8,1.12-2.15,2.32-3.32,2.3c-5.97-0.11-11.97-0.33-17.96-1.08
		c-4.93-0.62-9.86-2.03-14.78-3.14c-8.6-1.94-17.25-3.5-25.78-6.02c-5.16-1.53-10.15-4.45-15.16-6.95
		c-3.24-1.61-6.38-3.58-10.5-5.91c1.58,6.71,5.18,10.24,7.86,14.61c3.96,6.46,8.53,1.89,13.84,4.35c-3.89,0.71-6.59,1.21-9.28,1.7
		c0.07,0.38,0.14,0.75,0.21,1.13c3.52-0.05,7.03-0.09,10.55-0.14c0.05,0.44,0.11,0.88,0.16,1.32c-1.93,0.46-3.86,0.92-5.79,1.38
		c0.55,4.26,1.27,4.75,4.48,3.42c2.46-1.02,5-1.85,7.51-2.77c0.2,0.57,0.39,1.14,0.59,1.71c-2.5,0.88-5,1.76-8.16,2.87
		c3.77,3.32,6.59-0.02,9.87,0.98c-1.02,1.4-1.97,2.7-2.92,4.01c0.13,0.37,0.27,0.73,0.4,1.1c2.62-0.73,5.24-1.47,8.46-2.37
		c-0.75,2-1.3,3.48-1.86,4.97c0.14,0.32,0.29,0.63,0.43,0.95c2.1-1.28,4.2-2.56,6.69-4.07c-0.33,2.12-0.61,3.88-1.13,7.26
		c2.73-2.04,4.43-3.31,6.57-4.91c0.15,2.61,0.28,4.89,0.49,8.49c2.07-1.97,3.46-3.3,5.35-5.11c0.49,2.34,0.89,4.23,1.59,7.61
		c1.54-2.09,2.46-3.34,3.57-4.85c0.8,1.21,1.78,2.68,2.85,4.29c1.8,0.13,3.69,0.27,6.1,0.45c0.18,6.18-2.11,10.45-5.26,13.98
		c-3.86,4.31-8.03,8.23-12.04,12.34C1292.77,503.44,1292.74,503.9,1292.2,505.46z M964.47,60.69c3.92-1.61,7.02-2.34,9.96-4.22
		c4.58-2.92,7.98-3.18,10.8-2.3c10.06,3.13,22.55-1.53,36.18-9.5c3.13-1.83,6.26-3.88,9.38-5.51c3.21-1.68,6.4-2.97,10.2-4.7
		c-4.49-2.22-8.43-4.74-15.02-3.52c-0.39-2.06,1.19-4.23,2.89-6.48c4.89-6.48,5.13-8.38,1.85-11.61c-4.93-4.85-12.56-5.86-20.64-6.1
		c-5.13,4.68-3.21,7.39-3.39,11.07c-10.36,0.78-18.88-1.13-30.32,2.3c-0.29,2.82,1.52,3.28,2.88,4.06c2.74,1.57,6.23,2.36,8.35,4.53
		c1.62,1.66,3.86,2.79,4.92,4.81c0.98,1.87,0.07,5.39-0.38,8.34c-0.08,0.53-1.99,2.12-3.08,2.77c-5.05,2.99-10.11,5.83-15.17,8.69
		C970.95,54.96,967.86,56.01,964.47,60.69z M716.18,106.73c0.45,1.1,0.89,2.2,1.2,2.95c1.4-0.16,2.61-0.27,3.82-0.43
		c1.13-0.15,2.24-0.37,3.94-0.65c-1.04-1.68-1.5-2.81-2.27-3.57c-3.4-3.38-6.72-6.92-10.4-9.9c-3.28-2.65-4.77-5.26-3.19-9.02
		c0.14-0.32-0.07-0.84-0.16-1.6c-5.03,0.81-9.21,3.25-13.5,5.35c-5.44,2.67-10.29,6.24-14.41,10.8c-2.82,3.11-4.26,7.06-5.39,11.27
		c-1.17,4.37-2.55,8.66-3.97,13.46c0.55,0.74,1.57,1.35,2.39-0.21c0.94-1.79,1.8-3.66,2.41-5.64c0.66-2.17,1.83-3.59,4.25-4.18
		c3.61,3.22,3.19,9.48,8.08,12.07c0.63,1.24-2.15,2.89,0.83,4.19c1-2.27,1.97-4.48,2.94-6.69c0.3,0.15,0.59,0.3,0.89,0.45
		c-0.65,3.32-1.3,6.65-2.09,10.67c3.96-1.82,1.79-6.89,4.81-8.94c-0.11,4.15-0.21,7.91-0.32,12.04c2.39-1.06,1.58-3.2,1.87-4.78
		c0.29-1.61,0.45-3.26,0.66-4.9c0.32,0.07,0.65,0.15,0.97,0.22c0.29,3.98,0.58,7.97,0.9,12.48c3.44-2.81-0.68-7.51,2.42-10.36
		c0.88,4.64,1.67,8.8,2.45,12.96c0.34,0,0.69,0,1.03,0c-0.38-3.56-0.75-7.12-1.13-10.68c0.32-0.02,0.64-0.05,0.96-0.07
		c1.14,4.31,2.29,8.62,3.43,12.93c2.47-3.71-0.42-7.3-0.19-11.13c1.53,3.46,3.06,6.92,4.59,10.37c0.19-0.05,0.38-0.11,0.57-0.16
		c-0.58-2.19-1.16-4.37-1.74-6.56c0.17-0.1,0.34-0.2,0.52-0.29c1.3,2.07,2.6,4.13,4.21,6.69c-0.34-4.19,0.22-7.77-2.3-11.61
		c-4.31-6.58-7.98-13.58-12.26-20.19c-2.07-3.21-1.32-5.13,0.79-7.44c0.47,1.43,0.85,2.57,1.23,3.71c0.22,0.04,0.44,0.07,0.66,0.11
		c0.54-2.03,1.09-4.07,1.63-6.1c0.34,0.03,0.69,0.06,1.03,0.1c0.34,2.41,0.67,4.81,1.08,7.71c2.54-1.5,0.64-4.8,2.54-6.78
		c0.86,2.21,1.62,4.18,2.74,7.06c0.32-2.49,0.53-4.08,0.73-5.68C715.69,106.75,715.94,106.74,716.18,106.73z"/>
</g>
</svg>
