<svg xmlns="http://www.w3.org/2000/svg" xmlns:xlink="http://www.w3.org/1999/xlink" viewBox="0 0 1000 1000"><defs><style>.cls-1,.cls-3{fill:none;}.cls-2{clip-path:url(#clip-path);}.cls-3{stroke:#020100;stroke-miterlimit:10;}.cls-4{clip-path:url(#clip-path-2);}</style><clipPath id="clip-path"><rect class="cls-1" x="-1113.5" y="143.5" width="1000" height="1000"/></clipPath><clipPath id="clip-path-2"><rect class="cls-1" x="1" width="1000" height="1000"/></clipPath></defs><title>contours</title><g id="artboard_7" data-name="artboard 7"><g class="cls-2"><path class="cls-3" d="M-1097.92,463.45c261.87,1.24,347.07,65.4,376.31,124.06,29,58.16.43,105.86,36.18,264.65,20.48,91,30.72,136.46,65.13,168.52,58.73,54.72,122,30,247.08,78.57,67.38,26.16,67.6,42.88,137.5,75.46,89.91,41.91,171.81,57.25,228,63.58,21.56-65.3,15.09-88.55,4.13-97.18-23.65-18.6-67.6,31.39-135.43,30-57-1.19-75.08-37.54-152-84.78-125.33-77-179.37-43.09-236.74-99.24C-564.65,951-599.7,880.83-578.43,729.66c11.27-55.95,28.92-185.19-46.52-279.13-40-49.78-90.17-69.81-134.4-86.84-108.8-41.9-259.09-96.2-447.64-154C-1156,65.32-1114.9,36.86-1087.07,37c32.47.16,48.17,39.23,105.45,99.25,61.06,64,126.85,107.2,167.48,128.19,136.71,70.65,200.68-.84,314.28,68.23,71,43.2,105.94,107.58,133.36,158.18,74.27,137,29.6,198.72,92,295.67C-202.66,898.1-45.35,968.78,12.91,924c68.2-52.4,3-264.78-24.81-264.65-8.88,0-8.52,21.69-30,48.59-28.78,36.07-86.75,69-131.3,56.86-75.57-20.55-95.54-166.08-107.51-253.29-4.51-32.88-.16-42.65-6.2-71.33-16.5-78.29-59-119.85-84.78-160.24C-400.28,235.12-426.84,162.7-413,43.2c135.42,45.14,171.74,61.07,170.58,65.13-2.07,7.23-118.63-37.21-145.77,0-29.1,39.91,59.12,153.89,74.44,173.68,69.32,89.57,114.23,92.5,130.26,156.11,14.54,57.71-16.84,77.46,4.13,130.26,24.7,62.2,96.7,106.44,123,91,19.74-11.6,22.05-61.61,0-85.81-24.81-27.23-65.18-5-84.78-30-18.76-23.91,11.88-52.34,2.07-109.58-6.5-37.91-26.56-64.11-42.39-84.78-35.54-46.42-61.63-47.91-93-82.7-20.31-22.5-44.63-60.91-52.72-128.2,184-1.1,222.26-2.78,222.27-4.13,0-2.55-135.81-20.36-156.11,24.81-10.23,22.75,11.87,54.77,26.88,76.5,21.09,30.55,45.63,49.18,86.84,75.47A1464,1464,0,0,0-11.9,387.46"/></g><g class="cls-4"><path class="cls-3" d="M838.13,1107.32c-99.32-15.75-292.38-59.44-461.32-197.64-110-90-161.94-180.94-174.91-204.58C83.63,489.38,71.71,156.21,219.34,84.4,356,17.93,633.16,173.67,736.45,295.87c14.48,17.14,48,60.13,107.76,108.81,75.75,61.67,135.49,85,174.09,107.45,148,86,215.53,294.79,164.86,393.7-68,132.69-414.83,87.5-642.09-90C525.29,803.5,387.21,709.64,355.24,560.49c-10.19-47.51,1.93-77.82,13.15-97,2.93-5,35.89-59.4,98-71.3,32.72-6.26,59.49,1.95,78.48,8.74,94.48,33.8,157.71,90.2,175.38,105.14C854.89,619.92,967.59,545,1082.55,651c60.21,55.51,106,159.41,72.45,232.11-14.92,32.35-41.68,49.43-55,57.94-78.75,50.28-176.21,23.1-259,0-26.34-7.35-91.31-27.17-168.57-72.36-70.35-41.16-146-86.2-193.42-174.74-21-39.11-65.3-120.64-21.27-175.11,2-2.48,25.48-30.7,62.52-36.52,51.82-8.13,94.09,33.23,117.92,53.16,132.68,111,266.78,37.08,400.13,149.29,16.32,13.73,105.22,93.79,84.91,169.89-11.16,41.81-50.67,64.76-61.22,70.39-13,6.94-55.72,27-171-7-131-38.57-205-102.41-285-171.4-34.06-29.37-68.67-63-68.39-106,.05-6.58.29-43.63,24.13-54.83,14.92-7,32.49-.8,40,1.87,29.59,10.46,37.27,31,51.57,45.45,41,41.41,106.5,1.83,170.9,35.93,52.54,27.81,24.41,62.32,77.57,95.52,57.88,36.15,146.55,12.3,172.87,49,15.68,21.87,6.34,62.56-13.74,84.45-48.41,52.79-167.7,5.52-222-16-51.6-20.45-145-57.47-156.8-127.87-.37-2.25-7.94-45.77,15.85-61.78s68.23-.48,94.36,19.1c4.94,3.7,10.34,8.89,20.73,21.69C848.29,776.43,853.42,802.49,867,820c46.66,60.15,188.64,13.61,193,33,2,8.92-26.93,23.68-48,31-60.18,20.9-115.3,1.57-154-12-32.85-11.52-74.87-26.84-107-66.91-7.39-9.22-35.42-44.27-23.83-64,5.45-9.3,19.53-14.6,31.84-12.79,35.18,5.15,28.08,64.33,78,105.72,40.77,33.82,91.93,36.76,100,37,31.75.93,57.38-3.92,73-9"/></g><path class="cls-3" d="M977,703c3.36,7.1,20.44,43.26,8,55-18,16.94-99.74-14.73-100-55-.14-21.46,22.87-46.6,46-46C955.57,657.64,969.47,687.06,977,703Z"/></g></svg>