<svg xmlns="http://www.w3.org/2000/svg" viewBox="0 0 1686 846"><defs><style>.cls-1{fill:#fff;}</style></defs><title>birds3</title><g id="artboard2"><path class="cls-1" d="M756.56,257.36c-1.47.09-2.55-.21-3.59-2.61-2.74-6.34-6.51-7.92-10.66-7.55-7.61.7-15.35-2.66-23-8.28S704,227.33,696.34,221.47c0-.06,0-.74.26-.82,4.24-1.35,8.39-3,12.8-3.82,4.12-.76,7.32-6.13,6.14-12.15-1.26-6.46-.81-11.94,1.57-16.27,3.4-6.19,7-12.19,10.49-18.26,2.38-4.13,6.22-4.67,10.54-4.3l-2.62,3.69.5,1,5.71-1.22.17.72L738.63,172l.36.84,3,.14c.07,5.84-6.23,2.4-6.29,7.69,1.7,2.27,3.77-1.34,5,3.08L737.34,185l.31,1.11,3.74.49c1.39,5.62-3.94,2-3.77,6.19l3.74.34.35,1.28-7.07,1.5c.08.38.16.76.25,1.13l4.6,3.16V201l-5.23.12,9.42,6.82c-2.67,2-6.55-3-8,1.77l7.55,3.47-3.63,1.74c5.93,4.34,4.27,10.77,6.21,16.12,3.71,1.65,6.64.48,9.56-.74,1.63-.68,3.16-1.9,4.93-1.79,1.44.09,3.4,1.39,4.67,2.93.8.95,2.79,3.8.28,4.78l3.73,3c-2,4.73-6.48-.52-9.22,1.51,2.57,3.64,6.45,4.14,8.27,9.84l-7.61-2.44c0,.4,0,.79,0,1.19l3.29,4.25-4,4.24A14.14,14.14,0,0,0,756.56,257.36ZM590.38,443.09l-5.73-2.93v-.57l6,.17V439l-6.08-3,7.23-.58-3.56-2.58,4.36-1.8L589,428.34c1-.63,1.63-1,2.2-1.46,4.44-3.75,5.54-3.39,10.74,2.59,1.94,2.24,4.42,4.08,7,6.42,1.6-3.83-2.49-5.57-3.11-8.48,3-.87,5.05-3.55,9.28-2.62,1.79.4,1.82-.84.17-4.56,6.51-4.27.44-9.66-2.47-14.65-7.45-.49-12.19,6-20.64,3.2,0-.71-.15-1.12,0-1.21,5-3.6,4.39-6.16-2.36-11.4-5.73,1.64-11.18,3.29-16.73,4.75-2.36.61-5,.72-7.35,1.27a3.3,3.3,0,0,0-2.21,1.53c-1.61,3.38-5.13,4.19-8.63,4.39-3.69.22-6.36,1.34-8.57,3.79-1.61,1.78-3.87,3-6.27,4.72,4.47,1,8.4,1.88,12.32,2.81,2.1.5,4.2,1.15,6.3,1.67,2.35.57,3.55,2,2.85,3.94-2.86,7.84,1.13,15.71,5.45,23.68a53.66,53.66,0,0,1,3.4,7.92q2.76,8,5.14,16.08c.62,2.08,1.46,3.1,4,2.74-.7-2.39-1.39-4.75-2.09-7.12l.8-.15,3.38,4.51c-.13-4.7-3.85-7.78-4.91-11.59,3.83.51,4.27,4.67,7.27,6.14l-7.23-11.88.57-.42,3.12,2-2.83-6.09,7.54,5.17c-.08-1.22-.66-3-.11-4,.43-.77,2.29-.55,3.78-.82,1.42-3.22-1.35-5.37-5.27-8l6.91.43Zm826,142.7c-1.35-6.64.5-10.57,5.18-11.32-3.32-3.69-3.32-3.69-.24-6.81-1.93-4.32-5.12-4-7.89-3.6-11.43,1.48-23-2.45-35.12-6.87,1.93-7.4-1.54-13.15-8.08-17.86-1-.75-1.68-2.31-2.54-3.46-2.35-3.16-4.62-6.33-8.68-5.46a5.16,5.16,0,0,1-3.81-1c-5.22-4.22-8-2.13-10.28,2a4.71,4.71,0,0,1-3.81,2.27q2.42-6.62,4.82-13.25l-2.27-1.51-6.09,10.9-1.1-.48q.64-6,1.28-11.93l-1.22-1-4.86,7.26c-.71-2.46-1.46-5.07-2.22-7.69l-.93,0c-.58,3-1.17,6.09-2,10.62l-4.46-8.25c-.47.79-1,1.23-.92,1.6,3.45,12.07,7,24.13,10.81,37.38-12,1.91-24.81,2.27-31.66,12.4,9.32,3.5,19.49,7.2,29.6,11.23,1.53.6,3.74,2.67,4.05,4.12,1.74,8,3,16,4.29,23.46,4.11-.7,8.71-1.46,13.29-2.28,8.14-1.47,16.14-3.06,21.38-10,2.11-2.81,3.35-4.9-1.62-7.55,6.91-3.08,13.71-5.42,19.72-9,3.93-2.36,7.17-1.61,11.29,1.18C1406.74,583.84,1411.31,587.35,1416.39,585.79Zm-1089-448.45,16.2,17.6c-.08,4.29-.73,8.84-.15,13.08,1.88,13.76,3.78,27.57,7.78,40.63a26.49,26.49,0,0,0,1.52,3.34l.69-.43-2.19-8.11.59-.56,3.68,5.1.33-.32L353.32,200l1-.69,3.38,6.69.88-.51q-2.29-6.6-4.58-13.19l.58-.78,2.82,5.81,1.38-1.39-4-9.72.44-.62,2.89,2,.58-.58-2.62-5.16c3.53-1.4,4.4,6.65,7.67,3,1.15-2,2.31-4.09,3.76-6.66l-4.11-5.68,4.29.31c.11-.32.23-.65.35-1l-2.66-2.46,3.84-.53c-.28-1.33-.53-2.46-.81-3.78l2.08-1-.59-.62c.62-1.09,1.09-2.81,1.89-3.13a4.87,4.87,0,0,1,6.11,1.63c1.94,2.37,4.1,4.45,6.21,6.58,2.71,2.74,3.7,2.54,5.51-1.17,1.43-2.94,2.93-5.65,2.59-9.67-.37-4.45-1.25-6.34-4.77-6.79-3.3-.42-6.74-.38-9.85-1.62a170.46,170.46,0,0,1-16.46-8,24.72,24.72,0,0,0-13.58-2.73c-1.27.08-2.76.45-3.79-.22C338.59,135,333.23,135.92,327.39,137.34ZM1047,541.18c0-4.86-4-5.75-6.64-8.14-3.17-2.87-5.33-6.91-7.81-10.29,4.49-6.46,6.74-1.31,10.08-1.09,1.36-4.62-3.61-3.74-4.1-6.94,2.93-3.62,6.4-2.25,9.19-2.27s5.42,1.92,8.28,3.07c1.84-2.51,2.51-4.09.13-5.28-6.94-3.48-13.76-7.13-20.63-10.69-1.41-.73-2.92-1.29-4.25-2.11a26.05,26.05,0,0,0-15.22-3.75c-.83,0-2.19.17-2.5.67-1.6,2.56-4,2.16-5.7,3.32-2.69,1.89-4.11.88-6,.47-5.12-1.11-10.24-2.24-15.76-3.46,3.54,6.73,6.65,12.8,9.89,18.78,5.29,9.73,13.37,16.33,23.18,20.78a15.22,15.22,0,0,0,8.12.87c5.38-.77,9.48.41,12.12,4.52.94,1.48,1.89,2.32,4.11,1.42C1044.61,540.61,1045.88,541.12,1047,541.18ZM780.84,553.46c4.29,2.75,7.51,4.8,10.73,6.88,2,1.31,2.77,2.79,2.54,5.57-.83,10.13-1.26,20.38-1.84,30.59l1.32.68c.73-1.61,1.46-3.22,2.19-4.85l1.64,1.67-.42-5.26,4,5.23c.28-1.33.55-2.59.81-3.85l4.32-.26c-.48-2.18-.86-3.92-1.25-5.68,2.72.77,2.72.77,3.22,4.85,3.68-.79,1.8-4.74,1.49-7.11-.16-1.3-1.54-2.35.43-2.59-.33-.75-.66-1.51-1.13-2.61l3.08.15-.88-2.35,2.44-.53c.37-5.73.47-5.52,3.42-7a13.36,13.36,0,0,1,12.86,0c5.11,2.57,5.3,2.25,6.77-4.67a77,77,0,0,0-8.07-1.84c-4.1-.49-7.8-2.76-11.4-5.48-.78-.6-1.86-2.48-1.68-3.07,1.2-3.86-.51-7.64-1.8-11.43a10.47,10.47,0,0,1-.19-6.2c.59-2.41-1.1-5.71-3.18-6.88s-4.54.23-5.77-4c-.71-2.4-2.77-4.53-4.44-7.11a5.27,5.27,0,0,0-.93,1.69c-1.35,5.62-2.79,11.2-3.84,17a31,31,0,0,0-.31,9.2c.53,4.26.16,5.44-3.33,5.87a45.68,45.68,0,0,0-6.25.93C784,551.43,782.79,552.4,780.84,553.46Zm876.69,199.65c-11.46-6.56-23.2-12.07-34.34-19.76-17.12-11.83-34.66-18.94-52-27.94a14.6,14.6,0,0,0-6.88-1.55,34.4,34.4,0,0,1-19.44-5.5c-9.63-6-16.06-.71-24.83-1.05l18.24,26c-2.33,3.66-4.86,6.46-6.31,10.13q-9.32,23.42-18.06,47.27c-6,16.28-11.42,33.08-23.17,44.14-.25.25.21,1.42.58,3.54,4.09-1.39,8.74-1.43,11-4.17s5-3.05,9.14-2.11c1.46-6.43,2.91-12.76,4.36-19.09l1.92,1.1c0,4,0,8.09.07,13.25,8.43-3.74.66-17.57,6.65-22.07,4.18,5.62-.16,11.21,6.62,17.94-.63-8.84-1.17-16.33-1.71-23.82l1.85.24,7.18,16.93c3.53-2.65,1.76-6,.23-9.2-2.45-5.22-3.54-10.14-1.78-16l8.66,17.41,3-4-6-10.81,1-1.16,10.24,4.75c.11-.43.22-.85.32-1.27l-7.69-11,14.21,6.67c.2-.54.39-1.09.59-1.63L1551.35,770l.69-1.55c2.7,1.41,5.48,3.45,8.08,4.06,2.26.54,5.83,3.76,6.89.07l-9.35-9.45,14.35,2.58c0-.49-.11-1-.16-1.48l-5.42-5-.18-1.69,12.69,1.49c1.75-8.37,9.25-2.51,15-.82,4.09,1.2,7.67,4.67,9.93,9.95,2.19,5.11,4.95,10.09,7,14.21,7.95,3.72,12.91,1.75,17.72-.84s9.89-5,14.91-7.32c2-1,4.62-1.16,6.32-2.57,1.41-1.16,1.9-3.59,2.8-5.46-1.86-1.61-3.65-3.7-5.57-4.73-4.1-2.2-8.27-3.84-12.42-5.71l-.33-2.12c9.07,3.65,17.81,6.06,25.6,2.37C1658.63,754.4,1658.13,753.45,1657.53,753.11ZM33.77,223.18c1.57,3.59,1.82,6.52-1.32,8.6A23.55,23.55,0,0,0,25,238.89c-3,5-5,10.58-7.47,15.92q-4.95,10.89-9.85,21.8c-.51,1.15-.87,2.38-1.61,4.4,3.34-2.12,5.86-3.71,8.35-5.33.3-.2.43-.61.63-.92s.38-.4.38-.64c-.1-3,2-2.42,4-1.53,2.28-2.4.38-6.64,3-9.19.31,1.9.51,3.18.76,4.69,3.34-.23,3.09-2.35,2.67-4.71-.34-1.93-1.4-4.17.79-6.19l2,6.26c4.36-.52.07-5.12,2.12-6.57l5.45,3.2,0-4.55,6.61,2c-.29-1.59-.45-2.45-.62-3.34,6.07,1,4.78,1.12,5.22-2.36,1.51-.67,3.26-.89,4-1.9,1.48-1.9,3.48-1.74,5.9-1,3.14,1,6.31,2.3,9.41,2.81s4.87,2.06,6.44,4.72c3.75,6.35,3.83,6.4,10.57,6.32A7,7,0,0,1,90,265.67c.85,1.13,2,2.07,2.91,3.19,5.06,6.45,10.54,11.95,18.78,12.54,1.54.11,3.22,1,5.36,1.64-.34-2.12-.3-3.68-.9-5.15-1.18-2.85-1.55-5.69-2.87-8.64a21.52,21.52,0,0,0-6.89-8.56c-1.63-1.27-3.32-2.45-5-3.64-5.19-3.66-11-6.6-15.15-11.56a69.09,69.09,0,0,0-11.29-11c-6.37-4.76-12.66-9.78-20.16-11.9A48.87,48.87,0,0,1,41,215.81a15.07,15.07,0,0,0-11.81-2.34C30.82,216.86,32.38,220,33.77,223.18ZM243.41,62.11l4,.44-1.93-4.09,4,.08c1.34-1.12,2.07-2.13,3.14-2.54a12.35,12.35,0,0,0,5.85-4.55c2.67-3.65,6.12-6.87,8.67-10.58,2.23-3.24,3.68-6.91,5.56-10.55L270,30l.48-2.33c-1.3.64-2.1.94-2.79,1.38-3.48,2.17-6.73,4.68-10.45,6.51-9.89,4.88-20,9.42-30,14.19-2.41,1.16-4.58,2.68-7.27,4.28-.75-1.52-1.39-2.7-1.92-3.92-1.69-3.9-3.32-7.82-5-11.72q-3.42-7.87-6.9-15.75a5.46,5.46,0,0,0-1.39-2,42.59,42.59,0,0,0-3.55-2.4c.25,0,.07-.05,0,0a3.82,3.82,0,0,0-1,.74c-8.34,10.55-11.23,21.81-4,34.42a42,42,0,0,1,2.13,5.14l-13.14,4.28c2.66,2.09,5.05,3.95,7.42,5.84,2.63,2.1,5,4.44,7.88,6.28,7.06,4.58,14.66,8.43,23.55,8.69,4.2.12,8.39-.81,12.53-1.47,3-.48,5.58-.48,8.27,1.28a75.72,75.72,0,0,0,8.36,4.45,19.21,19.21,0,0,0,3.56,1l.64-1.07c-7.34-4.78-15.73-8.55-21.07-15.2l5-7.08,2.26.93C243.55,64.8,243.48,63.46,243.41,62.11Zm906.94,227.74c-5.48,5.6-10.19,12.57-18.34,14.43,0-2,0-3.8.08-6l-9.24,2.11c-.2-.55-.4-1.1-.61-1.64,1.9-1.29,3.67-2.9,5.74-3.78,2.48-1.05,4.33-1.89,1.6-5.28l-8.09,4c.39-7.12,5.73-5.73,8.23-8.5l-2.32-3.81c-2.69,1.72-5.07,3.26-7.46,4.8l-.83-1,8.57-10c-1.93-8-3.85-17-6.43-25.84-.86-3-3.37-5.54-5.13-8.29l-1.82.2c-.71,3.09-1.43,6.18-2.25,9.74-2.22-.42-3.8.45-5.16,3.27-8.1,16.86-12.85,34.93-12.06,55.34.28,7,.07,14,.08,20.1l-16.22,1.83c3.4,6.26,5.48,12,9,16.15a69.28,69.28,0,0,0,15.09,13.1c11.4,7.32,23.12,12.67,35.89,9.71,7.13-1.65,14.63-2.64,21.58,4.6,2.91,3,6.16,2.57,9.75.89-10.5-8.27-21.53-14.51-29.93-24.7,2.11-5.14,7.16-7.66,6.08-14.12,6.3,1.56,1.51-3.65,2.12-5.33l4.69-1-3.57-5.41,3.69-.07c1.38-2.45,2.17-3.94,3-5.36,1.76-2.87,4.63-5.3,2-9.85,7.56-8.31,16.54-35.29,12.4-38.5l-3.38,3.2-.68-3.81C1160.74,277.77,1155.88,284.21,1150.35,289.85Zm-171.66,143c-4.5,3.92-10,5.5-16.1,6.14-9.47,1-18.8-.83-28.21-1-2.18,0-3-1.4-3.34-3.21-.74-4-1.37-8-2.48-11.94-1.9-6.66-3.94-13.29-6.3-19.83-1.9-5.27-4.35-10.39-6.65-15.8-3.51.45-1-3-2.78-4.06-2.85.83-3.22,6-8,3.86a33.53,33.53,0,0,0-1.69,14.52c.65,7,2.11,13.9,3.09,20.87.24,1.72,1.72,3.59-.24,5.38l-9.24-2.1c.41,2,.8,4.12,1.26,6.21a31.29,31.29,0,0,0,7.28,14.57c7.54,8.39,17.26,13,29.11,14.11,4.14.39,7.68,1.68,10.16,5a9.22,9.22,0,0,0,5.66,4.17c-4.27-6.22-10-11-10.78-18.6,2.33-.19,4.25-.27,6.15-.52,6.37-.85,12.82-1.4,19.06-2.75,6.54-1.42,12.25-4.43,16.27-9.9l-4.29-1.74,2.77-2.89ZM373,503.21c-4-4.11-8.19-8-12-12.34a19,19,0,0,1-5.27-14l6.1-.45,2.85-4.28,3.57,4.84,1.6-7.6,5.34,5.1c.21-3.59.34-5.87.49-8.49l6.57,4.92c-.53-3.38-.8-5.14-1.13-7.26l6.69,4.07.43-.95c-.55-1.49-1.11-3-1.86-5l8.46,2.38.41-1.11-2.92-4c3.29-1,6.1,2.33,9.87-1L394,455.24l.59-1.72c2.5.92,5,1.75,7.51,2.77,3.2,1.33,3.92.84,4.47-3.42l-5.79-1.38.16-1.32,10.55.14.21-1.13-9.28-1.7c5.32-2.47,9.88,2.11,13.85-4.35,2.68-4.37,6.27-7.91,7.85-14.62-4.11,2.34-7.25,4.3-10.49,5.91-5,2.5-10,5.43-15.17,6.95-8.52,2.52-17.17,4.09-25.78,6-4.92,1.11-9.85,2.52-14.78,3.15a172,172,0,0,1-18,1.08c-1.17,0-2.52-1.18-3.32-2.3-5.48-7.71-13.36-10.15-21.24-12.47-.63,1.47-1.07,2.49-1.58,3.7-2.59-1.6-5-2.66-7-4.42-5-4.47-10.65-8.43-14.42-14.15-3-4.54-7.37-7.42-9.66-12.83-1.42-3.34-4.58-5.56-7.1-8.1a39.32,39.32,0,0,0-4.37-3.36l-1.33,1c.59,4.11.76,8.42,1.86,12.27,2.36,8.19,7.76,13,14.25,16.39,5.42,2.83,10.89,5.53,16.17,8.63,2.22,1.3,3.79,4,6.06,5.16,5.61,2.84,7.8,8.33,8.7,15.06,1.07,8,3.58,15.13,7.92,21.15,2.67,3.71,5.21,7.54,7.7,11.15l-3.35,6.21c14.11,6.54,27.22,15.59,44.55,10.79A11.2,11.2,0,0,0,373,503.21ZM692.13,53.31c-5.06-2.86-10.12-5.7-15.17-8.69-1.09-.64-3-2.23-3.07-2.76-.46-3-1.36-6.47-.39-8.35s3.3-3.15,4.92-4.81c2.12-2.17,5.61-3,8.35-4.53,1.36-.78,3.17-1.24,2.88-4.06-11.44-3.44-20-1.52-30.32-2.3-.18-3.69,1.74-6.4-3.39-11.07C647.86,7,640.23,8,635.3,12.84c-3.28,3.23-3,5.12,1.85,11.6,1.7,2.25,3.28,4.42,2.89,6.48-6.59-1.22-10.53,1.31-15,3.52,3.8,1.74,7,3,10.2,4.71s6.25,3.67,9.38,5.5c13.63,8,26.12,12.63,36.18,9.51,2.81-.88,6.22-.62,10.79,2.3,2.95,1.88,6,2.61,10,4.23C698.14,56,695.05,55,692.13,53.31Zm258.42,53.44c.21,1.6.42,3.19.74,5.68l2.74-7.06c1.89,2,0,5.28,2.53,6.78.41-2.89.75-5.3,1.09-7.71l1-.09,1.63,6.1.66-.11,1.24-3.71c2.1,2.31,2.85,4.23.78,7.44-4.27,6.61-7.94,13.61-12.26,20.19-2.51,3.84-2,7.43-2.3,11.61l4.21-6.68.52.29L951.42,146l.57.16,4.59-10.37c.23,3.82-2.66,7.42-.19,11.12L959.82,134l1,.07c-.38,3.56-.75,7.12-1.13,10.68h1c.79-4.16,1.57-8.32,2.45-13,3.1,2.85-1,7.54,2.42,10.36.33-4.51.62-8.5.9-12.48l1-.22c.21,1.63.37,3.28.66,4.89s-.53,3.71,1.87,4.78c-.11-4.13-.21-7.89-.32-12,3,2,.84,7.12,4.8,8.93-.79-4-1.44-7.35-2.09-10.67l.89-.45,2.94,6.69c3-1.3.21-2.94.83-4.18,4.9-2.59,4.48-8.86,8.08-12.07a5.43,5.43,0,0,1,4.25,4.17,33.23,33.23,0,0,0,2.41,5.64c.82,1.56,1.84,1,2.4.21-1.43-4.8-2.8-9.08-4-13.46-1.12-4.2-2.57-8.15-5.39-11.26a47.27,47.27,0,0,0-14.41-10.8c-4.28-2.1-8.46-4.54-13.49-5.35-.09.76-.3,1.28-.16,1.6,1.58,3.75.09,6.36-3.19,9a142.29,142.29,0,0,0-10.4,9.89,23.61,23.61,0,0,0-2.27,3.57c1.7.29,2.82.5,3.94.65s2.43.28,3.82.44c.31-.75.75-1.85,1.2-3Z"/></g></svg>